<?xml version="1.0" encoding="UTF-8" standalone="no" ?>
<!DOCTYPE svg PUBLIC "-//W3C//DTD SVG 1.1//EN" "http://www.w3.org/Graphics/SVG/1.1/DTD/svg11.dtd">
<svg xmlns="http://www.w3.org/2000/svg" xmlns:xlink="http://www.w3.org/1999/xlink" version="1.1" width="1280" height="1024" viewBox="0 0 1280 1024" xml:space="preserve">
<desc>Created with Fabric.js 3.6.3</desc>
<defs>
</defs>
<g transform="matrix(1.9692780337941629 0 0 1.9692780337941629 640.0153846153846 512.012312418764)" id="background-logo"  >
<rect style="stroke: none; stroke-width: 1; stroke-dasharray: none; stroke-linecap: butt; stroke-dashoffset: 0; stroke-linejoin: miter; stroke-miterlimit: 4; fill: rgb(255,255,255); fill-rule: nonzero; opacity: 1;"  paint-order="stroke"  x="-325" y="-260" rx="0" ry="0" width="650" height="520" />
</g>
<g transform="matrix(1.9692780337941629 0 0 1.9692780337941629 793.0630502017167 493.0831393312065)" id="text-logo-path"  >
<path style="stroke: none; stroke-width: 1; stroke-dasharray: none; stroke-linecap: butt; stroke-dashoffset: 0; stroke-linejoin: miter; stroke-miterlimit: 4; fill: rgb(242,105,30); fill-rule: nonzero; opacity: 1;"  paint-order="stroke"  transform=" translate(-189.29500000000002, 36.12)" d="M 23.77 -44.35 L 23.77 -44.35 Q 27.47 -44.35 31.08 -43.51 Q 34.69 -42.67 36.46 -41.83 L 36.46 -41.83 L 38.22 -40.99 L 33.35 -31.25 Q 28.31 -33.94 23.77 -33.94 L 23.77 -33.94 Q 21.25 -33.94 20.2 -33.39 Q 19.15 -32.84 19.15 -31.33 L 19.15 -31.33 Q 19.15 -31 19.24 -30.66 Q 19.32 -30.32 19.57 -30.03 Q 19.82 -29.74 20.03 -29.53 Q 20.24 -29.32 20.75 -29.06 Q 21.25 -28.81 21.55 -28.69 Q 21.84 -28.56 22.51 -28.31 Q 23.18 -28.06 23.52 -27.93 Q 23.86 -27.8 24.65 -27.55 Q 25.45 -27.3 25.87 -27.22 L 25.87 -27.22 Q 28.48 -26.46 30.41 -25.54 Q 32.34 -24.61 34.48 -23.02 Q 36.62 -21.42 37.8 -18.98 Q 38.98 -16.55 38.98 -13.44 L 38.98 -13.44 Q 38.98 1.26 18.56 1.26 L 18.56 1.26 Q 13.94 1.26 9.79 -0.17 Q 5.63 -1.6 3.78 -3.02 L 3.78 -3.02 L 1.93 -4.54 L 7.98 -14.7 Q 8.65 -14.11 9.74 -13.31 Q 10.84 -12.52 13.69 -11.13 Q 16.55 -9.74 18.65 -9.74 L 18.65 -9.74 Q 23.27 -9.74 23.27 -12.85 L 23.27 -12.85 Q 23.27 -14.28 22.09 -15.08 Q 20.92 -15.88 18.1 -16.88 Q 15.29 -17.89 13.69 -18.73 L 13.69 -18.73 Q 9.66 -20.83 7.31 -23.48 Q 4.96 -26.12 4.96 -30.49 L 4.96 -30.49 Q 4.96 -37.04 10.04 -40.7 Q 15.12 -44.35 23.77 -44.35 Z M 50.44 -5.12 Q 43.26 -11.51 43.26 -21.5 Q 43.26 -31.5 50.74 -37.93 Q 58.21 -44.35 69.22 -44.35 L 69.22 -44.35 Q 80.05 -44.35 87.49 -37.88 Q 94.92 -31.42 94.92 -21.5 Q 94.92 -11.59 87.65 -5.17 Q 80.39 1.26 69.22 1.26 L 69.22 1.26 Q 57.62 1.26 50.44 -5.12 Z M 61.95 -28.81 Q 59.05 -25.96 59.05 -21.5 Q 59.05 -17.05 61.82 -14.24 Q 64.6 -11.42 69.13 -11.42 L 69.13 -11.42 Q 73.5 -11.42 76.31 -14.28 Q 79.13 -17.14 79.13 -21.5 L 79.13 -21.5 Q 79.13 -25.96 76.23 -28.81 Q 73.33 -31.67 69.13 -31.67 L 69.13 -31.67 Q 64.85 -31.67 61.95 -28.81 Z M 101.05 -43.09 L 115.92 -43.09 L 115.92 -22.6 Q 115.92 -16.21 117.85 -13.52 Q 119.78 -10.84 124.4 -10.84 Q 129.02 -10.84 130.96 -13.52 Q 132.89 -16.21 132.89 -22.6 L 132.89 -22.6 L 132.89 -43.09 L 147.76 -43.09 L 147.76 -18.98 Q 147.76 -8.23 142.17 -3.49 Q 136.58 1.26 124.4 1.26 Q 112.22 1.26 106.64 -3.49 Q 101.05 -8.23 101.05 -18.98 L 101.05 -18.98 L 101.05 -43.09 Z M 175.39 -44.35 L 175.39 -44.35 Q 179.09 -44.35 182.7 -43.51 Q 186.31 -42.67 188.08 -41.83 L 188.08 -41.83 L 189.84 -40.99 L 184.97 -31.25 Q 179.93 -33.94 175.39 -33.94 L 175.39 -33.94 Q 172.87 -33.94 171.82 -33.39 Q 170.77 -32.84 170.77 -31.33 L 170.77 -31.33 Q 170.77 -31 170.86 -30.66 Q 170.94 -30.32 171.19 -30.03 Q 171.44 -29.74 171.65 -29.53 Q 171.86 -29.32 172.37 -29.06 Q 172.87 -28.81 173.17 -28.69 Q 173.46 -28.56 174.13 -28.31 Q 174.8 -28.06 175.14 -27.93 Q 175.48 -27.8 176.27 -27.55 Q 177.07 -27.3 177.49 -27.22 L 177.49 -27.22 Q 180.1 -26.46 182.03 -25.54 Q 183.96 -24.61 186.1 -23.02 Q 188.24 -21.42 189.42 -18.98 Q 190.6 -16.55 190.6 -13.44 L 190.6 -13.44 Q 190.6 1.26 170.18 1.26 L 170.18 1.26 Q 165.56 1.26 161.41 -0.17 Q 157.25 -1.6 155.4 -3.02 L 155.4 -3.02 L 153.55 -4.54 L 159.6 -14.7 Q 160.27 -14.11 161.36 -13.31 Q 162.46 -12.52 165.31 -11.13 Q 168.17 -9.74 170.27 -9.74 L 170.27 -9.74 Q 174.89 -9.74 174.89 -12.85 L 174.89 -12.85 Q 174.89 -14.28 173.71 -15.08 Q 172.54 -15.88 169.72 -16.88 Q 166.91 -17.89 165.31 -18.73 L 165.31 -18.73 Q 161.28 -20.83 158.93 -23.48 Q 156.58 -26.12 156.58 -30.49 L 156.58 -30.49 Q 156.58 -37.04 161.66 -40.7 Q 166.74 -44.35 175.39 -44.35 Z M 220.92 -32.17 L 220.92 -32.17 Q 216.72 -32.17 213.7 -29.06 Q 210.67 -25.96 210.67 -21.59 L 210.67 -21.59 Q 210.67 -17.14 213.7 -14.03 Q 216.72 -10.92 220.92 -10.92 L 220.92 -10.92 Q 222.94 -10.92 224.74 -11.42 Q 226.55 -11.93 227.39 -12.43 L 227.39 -12.43 L 228.14 -12.94 L 233.18 -2.6 Q 232.6 -2.18 231.55 -1.55 Q 230.5 -0.92 226.76 0.17 Q 223.02 1.26 218.74 1.26 L 218.74 1.26 Q 209.24 1.26 202.06 -5.42 Q 194.88 -12.1 194.88 -21.42 L 194.88 -21.42 Q 194.88 -30.83 202.06 -37.59 Q 209.24 -44.35 218.74 -44.35 L 218.74 -44.35 Q 223.02 -44.35 226.63 -43.34 Q 230.24 -42.34 231.76 -41.33 L 231.76 -41.33 L 233.18 -40.32 L 228.14 -30.16 Q 225.37 -32.17 220.92 -32.17 Z M 254.1 0 L 239.23 0 L 239.23 -72.24 L 254.1 -72.24 L 254.1 -38.56 L 254.27 -38.56 Q 260.06 -44.35 266.62 -44.35 L 266.62 -44.35 Q 269.81 -44.35 272.96 -43.51 Q 276.11 -42.67 279.01 -40.91 Q 281.9 -39.14 283.71 -35.91 Q 285.52 -32.68 285.52 -28.39 L 285.52 -28.39 L 285.52 0 L 270.65 0 L 270.65 -24.36 Q 270.65 -27.72 268.51 -30.24 Q 266.36 -32.76 262.92 -32.76 L 262.92 -32.76 Q 259.56 -32.76 256.83 -30.16 Q 254.1 -27.55 254.1 -24.36 L 254.1 -24.36 L 254.1 0 Z M 338.35 -19.49 L 338.35 -19.49 L 307.1 -19.49 Q 307.1 -14.95 310.04 -12.77 Q 312.98 -10.58 316.43 -10.58 L 316.43 -10.58 Q 320.04 -10.58 322.14 -11.55 Q 324.24 -12.52 326.93 -15.37 L 326.93 -15.37 L 337.68 -10 Q 330.96 1.26 315.34 1.26 L 315.34 1.26 Q 305.59 1.26 298.62 -5.42 Q 291.65 -12.1 291.65 -21.5 Q 291.65 -30.91 298.62 -37.63 Q 305.59 -44.35 315.34 -44.35 L 315.34 -44.35 Q 325.58 -44.35 332.01 -38.43 Q 338.44 -32.51 338.44 -21.5 L 338.44 -21.5 Q 338.44 -19.99 338.35 -19.49 Z M 307.52 -27.72 L 307.52 -27.72 L 323.9 -27.72 Q 323.4 -31.08 321.26 -32.89 Q 319.12 -34.69 315.76 -34.69 L 315.76 -34.69 Q 312.06 -34.69 309.88 -32.76 Q 307.69 -30.83 307.52 -27.72 Z M 341.29 -43.09 L 347.51 -43.09 L 347.51 -52.25 Q 347.59 -61.91 352.04 -67.7 Q 356.5 -73.5 364.39 -73.5 L 364.39 -73.5 Q 367.75 -73.5 370.82 -72.53 Q 373.88 -71.57 375.23 -70.56 L 375.23 -70.56 L 376.66 -69.64 L 371.45 -59.14 Q 369.43 -60.31 367 -60.31 L 367 -60.31 Q 364.22 -60.31 363.3 -58.42 Q 362.38 -56.53 362.38 -51.83 L 362.38 -51.83 L 362.38 -43.09 L 372.29 -43.09 L 372.29 -31.75 L 362.38 -31.75 L 362.38 0 L 347.51 0 L 347.51 -31.75 L 341.29 -31.75 L 341.29 -43.09 Z" stroke-linecap="round" />
</g>
<g transform="matrix(1.211002181412892 0 0 1.211002181412892 248.00800487717663 512.012312418764)" id="logo-logo"  >
<g style=""  paint-order="stroke"   >
		<g transform="matrix(2.713 0 0 -2.713 -18.5612130024237 -31.493963662026573)"  >
<path style="stroke: none; stroke-width: 1; stroke-dasharray: none; stroke-linecap: butt; stroke-dashoffset: 0; stroke-linejoin: miter; stroke-miterlimit: 4; fill: rgb(241,106,23); fill-rule: nonzero; opacity: 1;"  paint-order="stroke"  transform=" translate(-6.210252050051648, -1.647000000000002)" d="m 0 0 c 0.105 -6.534 3.46 -11.673 7.775 -16.241 c 0.388 -0.409 0.757 -0.827 1.108 -1.254 c 0.603 1.041 1.259 2.034 1.958 2.956 c 0.177 0.233 0.354 0.467 0.533 0.701 c 0.1 0.132 0.202 0.264 0.303 0.397 l 0.004 3.408 l 0.743 11.206 l -1.278 19.616 H 9.166 L 7.923 -7.804 C 6.011 -4.58 5.169 -1.202 5.104 3.025 L 4.831 20.789 H 2.622 C 2.457 6.492 -0.111 6.927 0 0" stroke-linecap="round" />
</g>
		<g transform="matrix(2.713 0 0 -2.713 8.484786997576293 6.71703633797344)"  >
<path style="stroke: none; stroke-width: 1; stroke-dasharray: none; stroke-linecap: butt; stroke-dashoffset: 0; stroke-linejoin: miter; stroke-miterlimit: 4; fill: rgb(146,59,6); fill-rule: nonzero; opacity: 1;"  paint-order="stroke"  transform=" translate(-165.62765120919008, -147.09000000000003)" d="m 170.704 180.317 l -0.274 -17.764 c -0.06 -3.995 -0.819 -7.231 -2.515 -10.296 v 0 v 0.005 l -1.244 28.055 h -2.01 l -2.053 -30.92 v -3.819 c -0.038 -0.051 -0.078 -0.1 -0.118 -0.151 v 0 c -0.053 -0.068 -0.106 -0.136 -0.159 -0.205 v 0 c -0.11 -0.144 -0.22 -0.288 -0.33 -0.432 v 0 c -0.177 -0.231 -0.354 -0.464 -0.529 -0.696 v 0 c -0.806 -1.063 -1.521 -2.179 -2.158 -3.334 v 0 c -0.99 -1.796 -1.774 -3.688 -2.355 -5.638 v 0 c -0.525 -1.76 -0.88 -3.567 -1.074 -5.39 v 0 c -0.569 -5.399 0.314 -10.946 2.646 -15.869 v 0 c 1.08 1.538 1.943 3.184 2.564 4.907 v 0 c 0.247 0.688 0.459 1.391 0.632 2.11 v 0 c -0.6 2.641 -0.73 5.418 -0.424 8.291 v 0 c 0 0.002 0 0.004 0 0.006 v 0 c 0.202 1.894 0.599 3.707 1.187 5.437 v 0 c 0.003 -0.008 0.006 -0.019 0.01 -0.029 v 0 v 0.055 c 0.089 0.261 0.181 0.521 0.281 0.779 v 0 c 0.061 0.162 0.129 0.323 0.194 0.484 v 0 c 0.04 0.1 0.08 0.202 0.123 0.303 v 0 c 0.094 0.224 0.194 0.445 0.295 0.666 v 0 c 0.017 0.036 0.033 0.071 0.049 0.107 v 0 c 0.614 1.316 1.354 2.577 2.224 3.781 v 0 c 0.001 -0.001 0.001 -0.003 0.003 -0.004 v 0 l 0.168 0.231 c 0.585 0.792 1.222 1.56 1.923 2.3 v 0 c 4.316 4.569 7.669 9.707 7.774 16.242 v 0 c 0.112 6.926 -2.457 6.491 -2.622 20.788 v 0 z" stroke-linecap="round" />
</g>
		<g transform="matrix(2.713 0 0 -2.713 -39.69421300242374 0.00303633797344105)"  >
<path style="stroke: none; stroke-width: 1; stroke-dasharray: none; stroke-linecap: butt; stroke-dashoffset: 0; stroke-linejoin: miter; stroke-miterlimit: 4; fill: rgb(241,106,23); fill-rule: nonzero; opacity: 1;"  paint-order="stroke"  transform=" translate(-2.2278856670856086, 44.89487597704534)" d="m 0 0 c -2.848 -1.454 -5.505 -3.286 -7.903 -5.471 c -0.226 -0.207 -0.451 -0.417 -0.674 -0.63 c -1.965 -1.883 -3.674 -3.948 -5.114 -6.151 c -3.446 -5.272 -5.345 -11.349 -5.472 -17.711 c -0.004 -0.229 0 -36.155 0 -36.155 c -0.096 -6.942 1.449 -13.732 5.804 -19.464 c 8.018 -10.553 21.71 -10.949 30.21 -1.141 c 0.278 0.324 0.553 0.658 0.822 1.001 c 0.897 1.155 1.687 2.374 2.381 3.639 c 2.896 5.275 4.029 11.403 3.401 17.352 c -0.192 1.823 -0.551 3.629 -1.075 5.39 c -0.582 1.949 -1.364 3.842 -2.351 5.638 l -0.073 -0.098 c -0.839 -1.174 -1.557 -2.401 -2.155 -3.68 c -0.015 -0.036 -0.031 -0.071 -0.048 -0.107 c -0.101 -0.221 -0.201 -0.442 -0.295 -0.666 c -0.043 -0.1 -0.083 -0.203 -0.124 -0.303 c -0.064 -0.162 -0.132 -0.322 -0.193 -0.485 c -0.099 -0.257 -0.192 -0.517 -0.281 -0.778 v -0.055 c 0.582 -1.722 0.976 -3.525 1.177 -5.408 v -0.006 c 0.409 -3.838 0.04 -7.5 -1.186 -10.904 c -0.746 -2.066 -1.807 -4.036 -3.205 -5.89 c -0.233 -0.31 -0.476 -0.616 -0.729 -0.919 c -6.123 -7.352 -15.787 -7.124 -21.76 0.363 c -3.663 4.591 -4.864 10.639 -4.848 16.521 v 35.556 h 0.01 c 0.033 10.686 6.113 20.036 15.136 25.091 c 4.525 2.536 9.79 3.992 15.405 3.992 c 0.035 0 0.069 -0.001 0.104 -0.001 C 16.918 0.352 16.813 2.179 16.737 4.009 C 10.808 3.99 5.098 2.603 0 0" stroke-linecap="round" />
</g>
		<g transform="matrix(2.713 0 0 -2.713 48.70178699757628 -0.0029636620265307556)"  >
<linearGradient id="SVGID_2_748725" gradientUnits="userSpaceOnUse" gradientTransform="matrix(77.013588 -53.419857 -53.419857 -77.013588 110.58984 192.72168)"  x1="0" y1="-1.4210854715202004e-14" x2="1" y2="-1.4210854715202004e-14">
<stop offset="0%" style="stop-color:rgb(241,106,23);stop-opacity: 1"/>
<stop offset="54.6223%" style="stop-color:rgb(241,106,23);stop-opacity: 1"/>
<stop offset="100%" style="stop-color:rgb(234,39,37);stop-opacity: 1"/>
</linearGradient>
<path style="stroke: none; stroke-width: 1; stroke-dasharray: none; stroke-linecap: butt; stroke-dashoffset: 0; stroke-linejoin: miter; stroke-miterlimit: 4; fill: url(#SVGID_2_748725); fill-rule: nonzero; opacity: 1;"  paint-order="stroke"  transform=" translate(-180.4519163281579, -149.56709723491667)" d="m 162.377 198.469 c 0.077 -1.831 0.182 -3.657 0.227 -5.489 v 0 c 5.575 -0.018 10.804 -1.471 15.302 -3.991 v 0 c 9.047 -5.07 15.135 -14.457 15.135 -25.178 v 0 v -0.061 h 0.005 v -35.393 c 0 -0.003 0 -0.009 0.001 -0.015 v 0 c -0.001 -5.91 -1.2 -11.93 -4.862 -16.521 v 0 c -5.886 -7.377 -15.353 -7.706 -21.487 -0.686 v 0 c -0.672 -1.169 -1.416 -2.279 -2.214 -3.307 v 0 c -0.279 -0.358 -0.572 -0.715 -0.872 -1.063 v 0 c -0.036 -0.04 -0.073 -0.08 -0.11 -0.12 v 0 c 8.542 -8.667 21.491 -7.91 29.197 2.233 v 0 c 4.307 5.669 5.973 12.621 5.818 19.503 v 0 c 0 0 0.01 36.068 0 36.386 v 0 c -0.175 6.267 -2.071 12.251 -5.471 17.45 v 0 c -1.44 2.2 -3.147 4.261 -5.109 6.142 v 0 c -0.223 0.213 -0.448 0.423 -0.673 0.63 v 0 c -2.399 2.184 -5.056 4.017 -7.904 5.471 v 0 c -5.133 2.62 -10.886 4.011 -16.86 4.011 v 0 c -0.041 0 -0.082 -0.002 -0.123 -0.002" stroke-linecap="round" />
</g>
</g>
</g>
</svg>