<?xml version="1.0" encoding="UTF-8" standalone="no"?>
<svg
   xmlns:dc="http://purl.org/dc/elements/1.1/"
   xmlns:cc="http://creativecommons.org/ns#"
   xmlns:rdf="http://www.w3.org/1999/02/22-rdf-syntax-ns#"
   xmlns:svg="http://www.w3.org/2000/svg"
   xmlns="http://www.w3.org/2000/svg"
   xmlns:sodipodi="http://sodipodi.sourceforge.net/DTD/sodipodi-0.dtd"
   xmlns:inkscape="http://www.inkscape.org/namespaces/inkscape"
   version="1.1"
   width="1038"
   height="329"
   viewBox="0 0 1038 329"
   xml:space="preserve"
   id="svg911"
   sodipodi:docname="LogoResized.svg"
   inkscape:version="1.0.2-2 (e86c870879, 2021-01-15)"><metadata
   id="metadata915"><rdf:RDF><cc:Work
       rdf:about=""><dc:format>image/svg+xml</dc:format><dc:type
         rdf:resource="http://purl.org/dc/dcmitype/StillImage" /><dc:title></dc:title></cc:Work></rdf:RDF></metadata><sodipodi:namedview
   pagecolor="#ffffff"
   bordercolor="#666666"
   borderopacity="1"
   objecttolerance="10"
   gridtolerance="10"
   guidetolerance="10"
   inkscape:pageopacity="0"
   inkscape:pageshadow="2"
   inkscape:window-width="2077"
   inkscape:window-height="1259"
   id="namedview913"
   showgrid="false"
   inkscape:zoom="0.84728518"
   inkscape:cx="600.73189"
   inkscape:cy="481.1249"
   inkscape:window-x="1719"
   inkscape:window-y="0"
   inkscape:window-maximized="0"
   inkscape:current-layer="svg911" />
<desc
   id="desc875">Created with Fabric.js 3.6.3</desc>
<defs
   id="defs877">
</defs>

<g
   transform="matrix(1.969278,0,0,1.969278,666.77735,144.91229)"
   id="text-logo-path">
<path
   style="opacity:1;fill:#f2691e;fill-rule:nonzero;stroke:none;stroke-width:1;stroke-linecap:butt;stroke-linejoin:miter;stroke-miterlimit:4;stroke-dasharray:none;stroke-dashoffset:0"
   paint-order="stroke"
   transform="translate(-189.295,36.12)"
   d="m 23.77,-44.35 v 0 q 3.7,0 7.31,0.84 3.61,0.84 5.38,1.68 v 0 l 1.76,0.84 -4.87,9.74 q -5.04,-2.69 -9.58,-2.69 v 0 q -2.52,0 -3.57,0.55 -1.05,0.55 -1.05,2.06 v 0 q 0,0.33 0.09,0.67 0.08,0.34 0.33,0.63 0.25,0.29 0.46,0.5 0.21,0.21 0.72,0.47 0.5,0.25 0.8,0.37 0.29,0.13 0.96,0.38 0.67,0.25 1.01,0.38 0.34,0.13 1.13,0.38 0.8,0.25 1.22,0.33 v 0 q 2.61,0.76 4.54,1.68 1.93,0.93 4.07,2.52 2.14,1.6 3.32,4.04 1.18,2.43 1.18,5.54 v 0 q 0,14.7 -20.42,14.7 v 0 Q 13.94,1.26 9.79,-0.17 5.63,-1.6 3.78,-3.02 v 0 L 1.93,-4.54 7.98,-14.7 q 0.67,0.59 1.76,1.39 1.1,0.79 3.95,2.18 2.86,1.39 4.96,1.39 v 0 q 4.62,0 4.62,-3.11 v 0 q 0,-1.43 -1.18,-2.23 -1.17,-0.8 -3.99,-1.8 -2.81,-1.01 -4.41,-1.85 v 0 q -4.03,-2.1 -6.38,-4.75 -2.35,-2.64 -2.35,-7.01 v 0 q 0,-6.55 5.08,-10.21 5.08,-3.65 13.73,-3.65 z m 26.67,39.23 q -7.18,-6.39 -7.18,-16.38 0,-10 7.48,-16.43 7.47,-6.42 18.48,-6.42 v 0 q 10.83,0 18.27,6.47 7.43,6.46 7.43,16.38 0,9.91 -7.27,16.33 -7.26,6.43 -18.43,6.43 v 0 q -11.6,0 -18.78,-6.38 z m 11.51,-23.69 q -2.9,2.85 -2.9,7.31 0,4.45 2.77,7.26 2.78,2.82 7.31,2.82 v 0 q 4.37,0 7.18,-2.86 2.82,-2.86 2.82,-7.22 v 0 q 0,-4.46 -2.9,-7.31 -2.9,-2.86 -7.1,-2.86 v 0 q -4.28,0 -7.18,2.86 z m 39.1,-14.28 h 14.87 v 20.49 q 0,6.39 1.93,9.08 1.93,2.68 6.55,2.68 4.62,0 6.56,-2.68 1.93,-2.69 1.93,-9.08 v 0 -20.49 h 14.87 v 24.11 q 0,10.75 -5.59,15.49 -5.59,4.75 -17.77,4.75 -12.18,0 -17.76,-4.75 -5.59,-4.74 -5.59,-15.49 v 0 z m 74.34,-1.26 v 0 q 3.7,0 7.31,0.84 3.61,0.84 5.38,1.68 v 0 l 1.76,0.84 -4.87,9.74 q -5.04,-2.69 -9.58,-2.69 v 0 q -2.52,0 -3.57,0.55 -1.05,0.55 -1.05,2.06 v 0 q 0,0.33 0.09,0.67 0.08,0.34 0.33,0.63 0.25,0.29 0.46,0.5 0.21,0.21 0.72,0.47 0.5,0.25 0.8,0.37 0.29,0.13 0.96,0.38 0.67,0.25 1.01,0.38 0.34,0.13 1.13,0.38 0.8,0.25 1.22,0.33 v 0 q 2.61,0.76 4.54,1.68 1.93,0.93 4.07,2.52 2.14,1.6 3.32,4.04 1.18,2.43 1.18,5.54 v 0 q 0,14.7 -20.42,14.7 v 0 q -4.62,0 -8.77,-1.43 -4.16,-1.43 -6.01,-2.85 v 0 l -1.85,-1.52 6.05,-10.16 q 0.67,0.59 1.76,1.39 1.1,0.79 3.95,2.18 2.86,1.39 4.96,1.39 v 0 q 4.62,0 4.62,-3.11 v 0 q 0,-1.43 -1.18,-2.23 -1.17,-0.8 -3.99,-1.8 -2.81,-1.01 -4.41,-1.85 v 0 q -4.03,-2.1 -6.38,-4.75 -2.35,-2.64 -2.35,-7.01 v 0 q 0,-6.55 5.08,-10.21 5.08,-3.65 13.73,-3.65 z m 45.53,12.18 v 0 q -4.2,0 -7.22,3.11 -3.03,3.1 -3.03,7.47 v 0 q 0,4.45 3.03,7.56 3.02,3.11 7.22,3.11 v 0 q 2.02,0 3.82,-0.5 1.81,-0.51 2.65,-1.01 v 0 l 0.75,-0.51 5.04,10.34 q -0.58,0.42 -1.63,1.05 -1.05,0.63 -4.79,1.72 -3.74,1.09 -8.02,1.09 v 0 q -9.5,0 -16.68,-6.68 -7.18,-6.68 -7.18,-16 v 0 q 0,-9.41 7.18,-16.17 7.18,-6.76 16.68,-6.76 v 0 q 4.28,0 7.89,1.01 3.61,1 5.13,2.01 v 0 l 1.42,1.01 -5.04,10.16 q -2.77,-2.01 -7.22,-2.01 z M 254.1,0 h -14.87 v -72.24 h 14.87 v 33.68 h 0.17 q 5.79,-5.79 12.35,-5.79 v 0 q 3.19,0 6.34,0.84 3.15,0.84 6.05,2.6 2.89,1.77 4.7,5 1.81,3.23 1.81,7.52 v 0 V 0 h -14.87 v -24.36 q 0,-3.36 -2.14,-5.88 -2.15,-2.52 -5.59,-2.52 v 0 q -3.36,0 -6.09,2.6 -2.73,2.61 -2.73,5.8 v 0 z m 84.25,-19.49 v 0 H 307.1 q 0,4.54 2.94,6.72 2.94,2.19 6.39,2.19 v 0 q 3.61,0 5.71,-0.97 2.1,-0.97 4.79,-3.82 v 0 L 337.68,-10 Q 330.96,1.26 315.34,1.26 v 0 q -9.75,0 -16.72,-6.68 -6.97,-6.68 -6.97,-16.08 0,-9.41 6.97,-16.13 6.97,-6.72 16.72,-6.72 v 0 q 10.24,0 16.67,5.92 6.43,5.92 6.43,16.93 v 0 q 0,1.51 -0.09,2.01 z m -30.83,-8.23 v 0 h 16.38 q -0.5,-3.36 -2.64,-5.17 -2.14,-1.8 -5.5,-1.8 v 0 q -3.7,0 -5.88,1.93 -2.19,1.93 -2.36,5.04 z m 33.77,-15.37 h 6.22 v -9.16 q 0.08,-9.66 4.53,-15.45 4.46,-5.8 12.35,-5.8 v 0 q 3.36,0 6.43,0.97 3.06,0.96 4.41,1.97 v 0 l 1.43,0.92 -5.21,10.5 q -2.02,-1.17 -4.45,-1.17 v 0 q -2.78,0 -3.7,1.89 -0.92,1.89 -0.92,6.59 v 0 8.74 h 9.91 v 11.34 h -9.91 V 0 h -14.87 v -31.75 h -6.22 z"
   stroke-linecap="round"
   id="path882" />
</g>
<g
   transform="matrix(1.2110022,0,0,1.2110022,121.72231,163.84146)"
   id="logo-logo">
<g
   paint-order="stroke"
   id="g908">
		<g
   transform="matrix(2.713,0,0,-2.713,-18.561213,-31.493964)"
   id="g887">
<path
   style="opacity:1;fill:#f16a17;fill-rule:nonzero;stroke:none;stroke-width:1;stroke-linecap:butt;stroke-linejoin:miter;stroke-miterlimit:4;stroke-dasharray:none;stroke-dashoffset:0"
   paint-order="stroke"
   transform="translate(-6.2102521,-1.647)"
   d="m 0,0 c 0.105,-6.534 3.46,-11.673 7.775,-16.241 0.388,-0.409 0.757,-0.827 1.108,-1.254 0.603,1.041 1.259,2.034 1.958,2.956 0.177,0.233 0.354,0.467 0.533,0.701 0.1,0.132 0.202,0.264 0.303,0.397 l 0.004,3.408 0.743,11.206 -1.278,19.616 H 9.166 L 7.923,-7.804 C 6.011,-4.58 5.169,-1.202 5.104,3.025 L 4.831,20.789 H 2.622 C 2.457,6.492 -0.111,6.927 0,0"
   stroke-linecap="round"
   id="path885" />
</g>
		<g
   transform="matrix(2.713,0,0,-2.713,8.484787,6.7170363)"
   id="g891">
<path
   style="opacity:1;fill:#923b06;fill-rule:nonzero;stroke:none;stroke-width:1;stroke-linecap:butt;stroke-linejoin:miter;stroke-miterlimit:4;stroke-dasharray:none;stroke-dashoffset:0"
   paint-order="stroke"
   transform="translate(-165.62765,-147.09)"
   d="m 170.704,180.317 -0.274,-17.764 c -0.06,-3.995 -0.819,-7.231 -2.515,-10.296 v 0 0.005 l -1.244,28.055 h -2.01 l -2.053,-30.92 v -3.819 c -0.038,-0.051 -0.078,-0.1 -0.118,-0.151 v 0 c -0.053,-0.068 -0.106,-0.136 -0.159,-0.205 v 0 c -0.11,-0.144 -0.22,-0.288 -0.33,-0.432 v 0 c -0.177,-0.231 -0.354,-0.464 -0.529,-0.696 v 0 c -0.806,-1.063 -1.521,-2.179 -2.158,-3.334 v 0 c -0.99,-1.796 -1.774,-3.688 -2.355,-5.638 v 0 c -0.525,-1.76 -0.88,-3.567 -1.074,-5.39 v 0 c -0.569,-5.399 0.314,-10.946 2.646,-15.869 v 0 c 1.08,1.538 1.943,3.184 2.564,4.907 v 0 c 0.247,0.688 0.459,1.391 0.632,2.11 v 0 c -0.6,2.641 -0.73,5.418 -0.424,8.291 v 0 c 0,0.002 0,0.004 0,0.006 v 0 c 0.202,1.894 0.599,3.707 1.187,5.437 v 0 c 0.003,-0.008 0.006,-0.019 0.01,-0.029 v 0 0.055 c 0.089,0.261 0.181,0.521 0.281,0.779 v 0 c 0.061,0.162 0.129,0.323 0.194,0.484 v 0 c 0.04,0.1 0.08,0.202 0.123,0.303 v 0 c 0.094,0.224 0.194,0.445 0.295,0.666 v 0 c 0.017,0.036 0.033,0.071 0.049,0.107 v 0 c 0.614,1.316 1.354,2.577 2.224,3.781 v 0 c 0.001,-0.001 0.001,-0.003 0.003,-0.004 v 0 l 0.168,0.231 c 0.585,0.792 1.222,1.56 1.923,2.3 v 0 c 4.316,4.569 7.669,9.707 7.774,16.242 v 0 c 0.112,6.926 -2.457,6.491 -2.622,20.788 v 0 z"
   stroke-linecap="round"
   id="path889" />
</g>
		<g
   transform="matrix(2.713,0,0,-2.713,-39.694213,0.00303634)"
   id="g895">
<path
   style="opacity:1;fill:#f16a17;fill-rule:nonzero;stroke:none;stroke-width:1;stroke-linecap:butt;stroke-linejoin:miter;stroke-miterlimit:4;stroke-dasharray:none;stroke-dashoffset:0"
   paint-order="stroke"
   transform="translate(-2.2278857,44.894876)"
   d="m 0,0 c -2.848,-1.454 -5.505,-3.286 -7.903,-5.471 -0.226,-0.207 -0.451,-0.417 -0.674,-0.63 -1.965,-1.883 -3.674,-3.948 -5.114,-6.151 -3.446,-5.272 -5.345,-11.349 -5.472,-17.711 -0.004,-0.229 0,-36.155 0,-36.155 -0.096,-6.942 1.449,-13.732 5.804,-19.464 8.018,-10.553 21.71,-10.949 30.21,-1.141 0.278,0.324 0.553,0.658 0.822,1.001 0.897,1.155 1.687,2.374 2.381,3.639 2.896,5.275 4.029,11.403 3.401,17.352 -0.192,1.823 -0.551,3.629 -1.075,5.39 -0.582,1.949 -1.364,3.842 -2.351,5.638 l -0.073,-0.098 c -0.839,-1.174 -1.557,-2.401 -2.155,-3.68 -0.015,-0.036 -0.031,-0.071 -0.048,-0.107 -0.101,-0.221 -0.201,-0.442 -0.295,-0.666 -0.043,-0.1 -0.083,-0.203 -0.124,-0.303 -0.064,-0.162 -0.132,-0.322 -0.193,-0.485 -0.099,-0.257 -0.192,-0.517 -0.281,-0.778 v -0.055 c 0.582,-1.722 0.976,-3.525 1.177,-5.408 v -0.006 c 0.409,-3.838 0.04,-7.5 -1.186,-10.904 -0.746,-2.066 -1.807,-4.036 -3.205,-5.89 -0.233,-0.31 -0.476,-0.616 -0.729,-0.919 -6.123,-7.352 -15.787,-7.124 -21.76,0.363 -3.663,4.591 -4.864,10.639 -4.848,16.521 v 35.556 h 0.01 c 0.033,10.686 6.113,20.036 15.136,25.091 4.525,2.536 9.79,3.992 15.405,3.992 0.035,0 0.069,-10e-4 0.104,-10e-4 C 16.918,0.352 16.813,2.179 16.737,4.009 10.808,3.99 5.098,2.603 0,0"
   stroke-linecap="round"
   id="path893" />
</g>
		<g
   transform="matrix(2.713,0,0,-2.713,48.701787,-0.00296366)"
   id="g906">
<linearGradient
   id="SVGID_2_748725"
   gradientUnits="userSpaceOnUse"
   gradientTransform="matrix(77.013588,-53.419857,-53.419857,-77.013588,110.58984,192.72168)"
   x1="0"
   y1="-1.4210855e-14"
   x2="1"
   y2="-1.4210855e-14">
<stop
   offset="0%"
   style="stop-color:rgb(241,106,23);stop-opacity: 1"
   id="stop897" />
<stop
   offset="54.6223%"
   style="stop-color:rgb(241,106,23);stop-opacity: 1"
   id="stop899" />
<stop
   offset="100%"
   style="stop-color:rgb(234,39,37);stop-opacity: 1"
   id="stop901" />
</linearGradient>
<path
   style="opacity:1;fill:url(#SVGID_2_748725);fill-rule:nonzero;stroke:none;stroke-width:1;stroke-linecap:butt;stroke-linejoin:miter;stroke-miterlimit:4;stroke-dasharray:none;stroke-dashoffset:0"
   paint-order="stroke"
   transform="translate(-180.45192,-149.5671)"
   d="m 162.377,198.469 c 0.077,-1.831 0.182,-3.657 0.227,-5.489 v 0 c 5.575,-0.018 10.804,-1.471 15.302,-3.991 v 0 c 9.047,-5.07 15.135,-14.457 15.135,-25.178 v 0 -0.061 h 0.005 v -35.393 c 0,-0.003 0,-0.009 0.001,-0.015 v 0 c -0.001,-5.91 -1.2,-11.93 -4.862,-16.521 v 0 c -5.886,-7.377 -15.353,-7.706 -21.487,-0.686 v 0 c -0.672,-1.169 -1.416,-2.279 -2.214,-3.307 v 0 c -0.279,-0.358 -0.572,-0.715 -0.872,-1.063 v 0 c -0.036,-0.04 -0.073,-0.08 -0.11,-0.12 v 0 c 8.542,-8.667 21.491,-7.91 29.197,2.233 v 0 c 4.307,5.669 5.973,12.621 5.818,19.503 v 0 c 0,0 0.01,36.068 0,36.386 v 0 c -0.175,6.267 -2.071,12.251 -5.471,17.45 v 0 c -1.44,2.2 -3.147,4.261 -5.109,6.142 v 0 c -0.223,0.213 -0.448,0.423 -0.673,0.63 v 0 c -2.399,2.184 -5.056,4.017 -7.904,5.471 v 0 c -5.133,2.62 -10.886,4.011 -16.86,4.011 v 0 c -0.041,0 -0.082,-0.002 -0.123,-0.002"
   stroke-linecap="round"
   id="path904" />
</g>
</g>
</g>
</svg>
